<svg xmlns="http://www.w3.org/2000/svg" width="1080" height="1080" viewBox="0 0 1080 1080" version="1.1"><path d="M 501 222.941 C 501 224.625, 502.931 225.151, 512.288 226.015 C 522.974 227.001, 532.641 228.636, 535.500 229.941 C 536.600 230.443, 540.650 231.402, 544.500 232.073 C 548.350 232.743, 551.768 233.703, 552.096 234.206 C 552.424 234.709, 554.335 235.206, 556.342 235.310 C 558.665 235.431, 559.993 235.996, 559.996 236.867 C 559.999 237.783, 560.821 238.076, 562.494 237.756 C 563.879 237.492, 565.470 237.862, 566.074 238.589 C 566.671 239.309, 568.811 240.410, 570.830 241.035 C 576.747 242.869, 581 245.014, 581 246.163 C 581 246.778, 582.114 247.020, 583.620 246.732 C 585.983 246.281, 591.662 248.386, 593.043 250.225 C 593.342 250.623, 594.669 251.115, 595.991 251.316 C 597.313 251.518, 598.568 252.204, 598.781 252.842 C 598.993 253.479, 600.254 254, 601.583 254 C 603.065 254, 604 254.580, 604 255.500 C 604 256.415, 604.933 257, 606.393 257 C 607.709 257, 609.045 257.675, 609.362 258.500 C 609.678 259.325, 610.803 260, 611.862 260 C 612.920 260, 614.056 260.704, 614.386 261.563 C 614.716 262.423, 615.388 262.878, 615.880 262.574 C 616.371 262.271, 617.329 262.692, 618.009 263.511 C 618.689 264.330, 620.090 265, 621.122 265 C 622.155 265, 623 265.627, 623 266.393 C 623 267.956, 625.694 269.307, 627.090 268.444 C 627.591 268.135, 628 268.584, 628 269.441 C 628 270.298, 628.675 271, 629.500 271 C 630.325 271, 631 271.450, 631 272 C 631 272.550, 631.627 273, 632.393 273 C 633.159 273, 634.045 273.675, 634.362 274.500 C 634.678 275.325, 635.851 276, 636.969 276 C 638.088 276, 639 276.659, 639 277.469 C 639 278.363, 639.586 278.712, 640.500 278.362 C 641.433 278.004, 642 278.368, 642 279.326 C 642 280.172, 642.900 281.151, 644 281.500 C 645.100 281.849, 646.005 282.667, 646.012 283.317 C 646.022 284.337, 655.987 292, 657.302 292 C 657.563 292, 659.830 294.025, 662.341 296.500 C 664.851 298.975, 667.377 301, 667.953 301 C 668.529 301, 668.888 301.563, 668.750 302.250 C 668.613 302.938, 669.283 303.438, 670.239 303.363 C 671.196 303.288, 671.714 303.653, 671.391 304.176 C 670.639 305.394, 673.870 309, 675.714 309 C 676.486 309, 676.821 309.480, 676.458 310.067 C 676.095 310.655, 676.743 311.381, 677.899 311.684 C 679.108 312, 680 313.044, 680 314.142 C 680 315.462, 680.924 316.235, 683 316.650 C 685.122 317.074, 686 317.830, 686 319.231 C 686 320.321, 687.105 322.081, 688.454 323.143 C 689.877 324.262, 690.673 325.689, 690.348 326.537 C 689.992 327.463, 690.402 328, 691.464 328 C 693.580 328, 696.121 330.477, 695.768 332.196 C 695.621 332.913, 696.288 333.438, 697.250 333.361 C 698.357 333.273, 699 333.927, 699 335.142 C 699 336.199, 699.675 337.322, 700.500 337.638 C 701.325 337.955, 702 338.841, 702 339.607 C 702 340.373, 702.450 341, 703 341 C 703.550 341, 704 341.948, 704 343.107 C 704 344.508, 704.472 345.033, 705.408 344.674 C 706.308 344.328, 707.037 345.011, 707.427 346.567 C 707.763 347.905, 708.480 349, 709.019 349 C 709.559 349, 710 349.675, 710 350.500 C 710 351.325, 710.498 352, 711.107 352 C 711.716 352, 711.958 352.668, 711.644 353.485 C 711.309 354.357, 711.884 355.402, 713.037 356.020 C 714.117 356.598, 715 357.969, 715 359.067 C 715 360.164, 715.675 361.322, 716.500 361.638 C 717.325 361.955, 718 362.855, 718 363.638 C 718 364.422, 718.675 365.322, 719.500 365.638 C 720.325 365.955, 721 367.080, 721 368.138 C 721 369.197, 721.675 370.322, 722.500 370.638 C 723.325 370.955, 724 372.243, 724 373.500 C 724 374.757, 724.675 376.045, 725.500 376.362 C 726.325 376.678, 727 377.537, 727 378.269 C 727 380.565, 729.444 384.984, 730.719 384.992 C 731.389 384.996, 731.700 385.617, 731.411 386.371 C 731.122 387.125, 731.586 388.443, 732.442 389.300 C 733.299 390.156, 734 391.959, 734 393.306 C 734 394.653, 734.675 396.315, 735.500 397 C 736.325 397.685, 737 399.329, 737 400.654 C 737 401.979, 737.675 403.322, 738.500 403.638 C 739.325 403.955, 740 405.291, 740 406.607 C 740 407.923, 740.410 409, 740.912 409 C 741.414 409, 742.128 410.800, 742.500 413 C 742.872 415.200, 743.586 417, 744.088 417 C 744.590 417, 745.003 418.012, 745.006 419.250 C 745.010 420.488, 745.685 422.789, 746.506 424.364 C 747.328 425.940, 748 428.541, 748 430.146 C 748 431.750, 748.587 433.288, 749.304 433.563 C 750.080 433.861, 750.627 435.774, 750.655 438.282 C 750.681 440.602, 751.159 442.408, 751.717 442.295 C 752.275 442.182, 753.009 444.429, 753.348 447.289 C 753.686 450.148, 754.309 452.603, 754.732 452.743 C 755.154 452.884, 755.357 455.136, 755.182 457.749 C 754.993 460.586, 755.525 464.066, 756.503 466.387 C 757.404 468.525, 758.328 473.420, 758.555 477.266 C 758.783 481.111, 759.414 484.794, 759.958 485.449 C 761.541 487.356, 761.825 553.001, 760.250 553 C 759.433 553, 758.932 554.820, 758.805 558.250 C 758.454 567.715, 758.377 568.581, 757.796 569.546 C 756.566 571.591, 754.895 582.093, 755.498 583.993 C 755.855 585.118, 755.681 586, 755.102 586 C 754.534 586, 753.770 588.250, 753.406 591 C 753.015 593.942, 752.234 596, 751.508 596 C 750.730 596, 750.273 597.506, 750.273 600.064 C 750.273 602.299, 749.761 604.639, 749.136 605.264 C 748.511 605.889, 748 607.609, 748 609.086 C 748 610.563, 747.328 613.060, 746.506 614.636 C 745.685 616.211, 745.010 618.513, 745.006 619.750 C 745.003 620.987, 744.550 622, 744 622 C 743.450 622, 743 623.077, 743 624.393 C 743 625.709, 742.325 627.045, 741.500 627.362 C 740.613 627.702, 740 629.204, 740 631.040 C 740 632.747, 739.325 634.818, 738.500 635.643 C 737.675 636.468, 737 637.956, 737 638.949 C 737 639.942, 736.325 641.315, 735.500 642 C 734.675 642.685, 734 644.540, 734 646.122 C 734 647.705, 733.580 649, 733.067 649 C 732.554 649, 731.819 650.013, 731.433 651.250 C 731.046 652.487, 730.454 653.725, 730.115 654 C 728.665 655.178, 726 660.984, 726 662.963 C 726 664.148, 725.585 664.862, 725.078 664.549 C 724.106 663.948, 721 669.359, 721 671.654 C 721 672.394, 720.325 673, 719.500 673 C 718.567 673, 718 673.944, 718 675.500 C 718 677.056, 717.433 678, 716.500 678 C 715.675 678, 715 678.870, 715 679.933 C 715 680.996, 714.131 682.141, 713.069 682.478 C 712.001 682.817, 710.856 684.379, 710.505 685.976 C 710.157 687.563, 709.225 689.398, 708.436 690.053 C 707.646 690.709, 707 691.865, 707 692.622 C 707 693.380, 706.325 694, 705.500 694 C 704.675 694, 704 694.627, 704 695.393 C 704 696.159, 703.296 697.056, 702.437 697.386 C 701.577 697.716, 701.124 698.392, 701.431 698.888 C 701.738 699.384, 701.316 700.048, 700.494 700.364 C 699.672 700.679, 699 701.745, 699 702.731 C 699 703.718, 698.016 704.970, 696.814 705.513 C 695.612 706.056, 693.760 708.071, 692.699 709.992 C 691.639 711.912, 689.697 714.478, 688.385 715.694 C 687.073 716.910, 686 718.180, 686 718.517 C 686 718.854, 684.650 720.265, 683 721.653 C 681.350 723.042, 680 724.813, 680 725.589 C 680 726.365, 679.052 727, 677.893 727 C 676.431 727, 675.962 727.459, 676.362 728.500 C 676.678 729.325, 676.483 730, 675.927 730 C 674.609 730, 670.332 733.980, 671.561 734.063 C 672.078 734.098, 671.459 734.544, 670.186 735.055 C 668.913 735.565, 668.144 736.424, 668.477 736.962 C 668.809 737.501, 667.938 738.228, 666.541 738.579 C 665.143 738.930, 664 739.843, 664 740.608 C 664 741.374, 663.663 742, 663.250 742.001 C 662.837 742.001, 660.731 743.576, 658.568 745.501 C 656.406 747.425, 654.268 749, 653.818 749 C 653.368 749, 653 749.702, 653 750.559 C 653 751.418, 652.516 751.819, 651.923 751.453 C 651.331 751.087, 649.964 751.735, 648.884 752.894 C 647.805 754.052, 646.490 755, 645.961 755 C 645.432 755, 645 755.675, 645 756.500 C 645 757.325, 644.325 758, 643.500 758 C 642.675 758, 642 758.450, 642 759 C 642 759.550, 641.325 760, 640.500 760 C 639.675 760, 639 760.675, 639 761.500 C 639 762.341, 638.108 763, 636.969 763 C 635.851 763, 634.678 763.675, 634.362 764.500 C 634.045 765.325, 633.159 766, 632.393 766 C 631.627 766, 631 766.450, 631 767 C 631 767.550, 630.325 768, 629.500 768 C 628.675 768, 628 768.633, 628 769.406 C 628 770.334, 627.299 770.629, 625.941 770.274 C 624.428 769.879, 623.734 770.301, 623.324 771.868 C 622.961 773.256, 621.973 774, 620.490 774 C 619.238 774, 617.953 774.679, 617.635 775.509 C 617.316 776.339, 616.481 776.902, 615.778 776.759 C 615.075 776.617, 614.612 777.063, 614.750 777.750 C 614.897 778.487, 613.960 779, 612.469 779 C 611.076 779, 609.678 779.675, 609.362 780.500 C 609.034 781.355, 607.542 782, 605.893 782 C 603.988 782, 603 782.512, 603 783.500 C 603 784.325, 602.476 785, 601.836 785 C 599.970 785, 593 788.307, 593 789.192 C 593 789.637, 592.127 790, 591.059 790 C 589.991 790, 588.840 790.450, 588.500 791 C 588.160 791.550, 586.334 792, 584.441 792 C 582.049 792, 581 792.457, 581 793.500 C 581 794.341, 580.108 795, 578.969 795 C 577.851 795, 576.679 795.672, 576.364 796.494 C 576.048 797.316, 575.398 797.746, 574.918 797.449 C 573.582 796.624, 566 798.931, 566 800.164 C 566 800.840, 564.855 801.021, 562.962 800.642 C 560.855 800.221, 559.761 800.459, 559.393 801.419 C 559.101 802.180, 557.318 803.093, 555.431 803.447 C 553.318 803.843, 552 804.672, 552 805.604 C 552 806.437, 551.543 806.836, 550.985 806.491 C 549.993 805.877, 542.442 807.108, 534.549 809.169 C 532.376 809.736, 529.051 810.393, 527.160 810.627 C 525.270 810.862, 523.222 811.379, 522.611 811.777 C 522 812.175, 517.140 812.735, 511.811 813.022 C 501.972 813.552, 499.805 814.205, 501.674 816.074 C 503.008 817.408, 525.966 816.790, 535.500 815.165 C 539.350 814.508, 545.594 813.519, 549.375 812.967 C 553.156 812.415, 556.704 811.683, 557.259 811.340 C 557.813 810.997, 559.827 810.622, 561.733 810.506 C 563.639 810.391, 565.492 809.848, 565.850 809.301 C 566.207 808.753, 569.400 808.009, 572.944 807.648 C 576.488 807.286, 579.638 806.607, 579.944 806.139 C 580.250 805.671, 582.188 804.978, 584.250 804.599 C 586.313 804.220, 588 803.480, 588 802.955 C 588 802.430, 589.800 802, 592 802 C 594.889 802, 596 801.583, 596 800.500 C 596 799.513, 596.987 799, 598.886 799 C 600.473 799, 603.060 798.328, 604.636 797.506 C 606.211 796.685, 608.261 796.010, 609.191 796.006 C 610.121 796.003, 611.160 795.550, 611.500 795 C 611.840 794.450, 612.954 794, 613.976 794 C 614.997 794, 615.992 793.523, 616.187 792.940 C 616.381 792.356, 618.054 791.836, 619.905 791.784 C 622.122 791.721, 623.415 791.131, 623.697 790.052 C 623.932 789.152, 625.068 788.345, 626.222 788.258 C 627.376 788.171, 628.586 787.673, 628.910 787.151 C 629.235 786.629, 630.625 786.033, 632 785.827 C 633.375 785.621, 634.388 784.901, 634.250 784.226 C 634.105 783.515, 635.063 783, 636.531 783 C 637.924 783, 639.322 782.325, 639.638 781.500 C 639.955 780.675, 641.291 780, 642.607 780 C 644.067 780, 645 779.415, 645 778.500 C 645 777.585, 645.933 777, 647.393 777 C 648.709 777, 650.045 776.325, 650.362 775.500 C 650.678 774.675, 651.865 774, 653 774 C 654.135 774, 655.306 773.366, 655.604 772.590 C 655.901 771.815, 657.218 770.911, 658.529 770.582 C 662.184 769.665, 668.066 765.915, 667.439 764.902 C 667.133 764.406, 667.549 764, 668.364 764 C 669.179 764, 671.226 762.620, 672.912 760.934 C 674.598 759.248, 676.433 758.149, 676.989 758.493 C 677.545 758.837, 678 758.416, 678 757.559 C 678 756.702, 678.675 756, 679.500 756 C 680.325 756, 681 755.325, 681 754.500 C 681 753.675, 681.878 753, 682.950 753 C 684.023 753, 685.260 752.437, 685.700 751.748 C 686.140 751.060, 687.737 749.859, 689.250 749.079 C 690.780 748.291, 692 746.824, 692 745.772 C 692 744.732, 692.453 744.162, 693.007 744.504 C 693.561 744.847, 694.284 744.423, 694.614 743.563 C 694.944 742.704, 695.749 742, 696.404 742 C 697.058 742, 698.698 740.669, 700.047 739.042 C 701.396 737.416, 703.063 736.066, 703.750 736.042 C 704.438 736.019, 705 735.363, 705 734.584 C 705 733.805, 706.350 732.570, 708 731.840 C 709.650 731.109, 711 729.998, 711 729.371 C 711 728.743, 712.125 727.493, 713.500 726.592 C 714.875 725.691, 716 724.337, 716 723.584 C 716 722.830, 716.672 721.956, 717.494 721.641 C 718.316 721.325, 719.889 719.590, 720.991 717.784 C 722.092 715.978, 722.994 714.893, 722.996 715.372 C 722.998 715.852, 723.670 715.689, 724.489 715.009 C 725.308 714.329, 725.731 713.374, 725.430 712.887 C 725.129 712.399, 725.359 712, 725.941 712 C 726.523 712, 727 711.325, 727 710.500 C 727 709.675, 727.675 709, 728.500 709 C 729.333 709, 730 708.111, 730 707 C 730 705.900, 730.623 705, 731.385 705 C 732.147 705, 733.568 703.763, 734.542 702.250 C 735.517 700.738, 736.928 699.135, 737.678 698.689 C 738.428 698.242, 738.813 697.506, 738.532 697.052 C 738.252 696.598, 738.692 695.671, 739.511 694.991 C 740.330 694.311, 741 693.135, 741 692.378 C 741 691.620, 741.675 691, 742.500 691 C 743.333 691, 744 690.111, 744 689 C 744 687.900, 744.420 687, 744.933 687 C 745.446 687, 746.151 686.100, 746.500 685 C 746.849 683.900, 747.779 683, 748.567 683 C 749.355 683, 750 682.138, 750 681.083 C 750 680.029, 750.382 679.017, 750.848 678.833 C 752.014 678.375, 757 669.247, 757 667.572 C 757 666.825, 757.675 665.955, 758.500 665.638 C 759.325 665.322, 760 663.924, 760 662.531 C 760 661.040, 760.513 660.103, 761.250 660.250 C 762.015 660.403, 762.485 659.432, 762.461 657.750 C 762.438 656.151, 762.961 655, 763.711 655 C 764.420 655, 765 653.875, 765 652.500 C 765 650.944, 765.567 650, 766.500 650 C 767.333 650, 768 649.111, 768 648 C 768 646.900, 768.400 646, 768.889 646 C 769.377 646, 770.073 644.425, 770.434 642.500 C 770.855 640.254, 771.657 639, 772.670 639 C 773.892 639, 774.114 638.320, 773.650 636 C 773.200 633.751, 773.419 633, 774.525 633 C 775.872 633, 776.129 632.158, 776.447 626.697 C 776.505 625.706, 777.046 624.581, 777.651 624.197 C 778.255 623.814, 779.066 622.038, 779.454 620.250 C 779.842 618.462, 780.626 617, 781.196 617 C 781.785 617, 782.009 615.827, 781.715 614.288 C 781.394 612.610, 781.727 611.181, 782.590 610.538 C 783.388 609.944, 784.056 607.469, 784.154 604.750 C 784.269 601.535, 784.757 600, 785.662 600 C 786.816 600, 787.597 596.506, 787.083 593.645 C 786.999 593.174, 787.425 592.193, 788.030 591.464 C 788.635 590.735, 789.394 587.520, 789.715 584.319 C 790.037 581.119, 790.730 578.219, 791.255 577.876 C 791.780 577.533, 792.422 574.158, 792.681 570.376 C 792.940 566.594, 793.554 562.375, 794.045 561 C 794.536 559.625, 795.434 551.982, 796.041 544.015 C 796.717 535.137, 797.600 529.233, 798.322 528.765 C 799.188 528.203, 799.102 527.739, 798 527.015 C 796.997 526.357, 796.914 526.026, 797.750 526.015 C 799.275 525.997, 799.548 509.355, 798.032 508.833 C 797.499 508.650, 796.580 501.975, 795.989 494 C 795.397 486.025, 794.516 478.600, 794.029 477.500 C 793.543 476.400, 792.932 472.365, 792.670 468.533 C 792.409 464.700, 791.701 461.400, 791.098 461.199 C 790.494 460.998, 789.997 458.733, 789.994 456.167 C 789.990 453.600, 789.315 450.211, 788.494 448.636 C 787.672 447.060, 787 444.248, 787 442.386 C 787 440.524, 786.590 439, 786.088 439 C 785.586 439, 784.872 437.200, 784.500 435 C 784.128 432.800, 783.414 431, 782.912 431 C 782.410 431, 782 429.030, 782 426.622 C 782 423.951, 781.415 421.760, 780.500 421 C 779.675 420.315, 779 418.671, 779 417.346 C 779 416.021, 778.438 414.720, 777.750 414.455 C 777.063 414.190, 776.397 412.518, 776.271 410.739 C 776.145 408.959, 775.299 406.961, 774.392 406.298 C 773.365 405.546, 772.951 404.297, 773.294 402.985 C 773.636 401.676, 773.305 400.671, 772.422 400.332 C 771.640 400.032, 771 398.709, 771 397.393 C 771 395.933, 770.415 395, 769.500 395 C 768.556 395, 768 394.048, 768 392.429 C 768 391.014, 767.325 389.182, 766.500 388.357 C 765.675 387.532, 765 385.975, 765 384.897 C 765 383.819, 764.299 382.668, 763.443 382.340 C 762.586 382.011, 762.127 381.113, 762.422 380.343 C 762.717 379.574, 762.068 378.182, 760.979 377.250 C 759.891 376.318, 759 374.981, 759 374.278 C 759 373.575, 758.550 373, 758 373 C 757.450 373, 757 372.347, 757 371.550 C 757 370.752, 755.625 367.715, 753.945 364.800 C 752.265 361.885, 750.637 358.712, 750.328 357.750 C 750.019 356.788, 749.430 356, 749.019 356 C 748.608 356, 746.984 354.087, 745.410 351.750 C 743.836 349.413, 741.552 346.453, 740.334 345.174 C 739.117 343.895, 738.367 342.207, 738.667 341.424 C 739.034 340.470, 738.519 340, 737.107 340 C 735.720 340, 735 339.365, 735 338.140 C 735 337.117, 733.875 335.435, 732.500 334.403 C 731.125 333.370, 730 331.957, 730 331.263 C 730 330.568, 729.325 330, 728.500 330 C 727.675 330, 727 329.325, 727 328.500 C 727 327.675, 726.550 327, 726 327 C 725.450 327, 725 326.052, 725 324.893 C 725 323.431, 724.541 322.962, 723.500 323.362 C 722.589 323.711, 722 323.364, 722 322.476 C 722 321.673, 720.650 319.813, 719 318.342 C 717.350 316.872, 716 315.069, 716 314.335 C 716 313.601, 715.578 313, 715.063 313 C 714.548 313, 710.892 309.823, 706.939 305.940 C 702.526 301.605, 699.202 299.092, 698.324 299.429 C 697.476 299.755, 697.163 299.545, 697.554 298.912 C 698.232 297.816, 694.813 294, 693.153 294 C 692.641 294, 692.285 293.261, 692.361 292.358 C 692.443 291.386, 691.358 290.325, 689.704 289.759 C 688.165 289.233, 685.478 287.497, 683.731 285.901 C 681.984 284.306, 679.980 283, 679.277 283 C 678.575 283, 678 282.325, 678 281.500 C 678 280.675, 677.325 280, 676.500 280 C 675.675 280, 675 279.550, 675 279 C 675 278.450, 674.373 278, 673.607 278 C 672.841 278, 671.955 277.325, 671.638 276.500 C 671.322 275.675, 670.149 275, 669.031 275 C 667.914 275, 667 274.420, 667 273.711 C 667 272.553, 659.210 268.045, 654.750 266.621 C 653.788 266.314, 653 265.572, 653 264.972 C 653 264.373, 652.547 264.162, 651.993 264.504 C 651.439 264.847, 650.716 264.423, 650.386 263.563 C 650.056 262.704, 648.709 262, 647.393 262 C 645.933 262, 645 261.415, 645 260.500 C 645 259.587, 644.069 259, 642.622 259 C 641.315 259, 639.685 258.325, 639 257.500 C 638.315 256.675, 636.910 256, 635.878 256 C 634.845 256, 634 255.325, 634 254.500 C 634 253.567, 633.056 253, 631.500 253 C 630.125 253, 629 252.599, 629 252.108 C 629 251.618, 627.878 250.935, 626.506 250.591 C 625.134 250.247, 624.122 249.410, 624.256 248.732 C 624.409 247.961, 623.005 247.379, 620.500 247.176 C 618.300 246.997, 616.151 246.228, 615.724 245.467 C 615.297 244.706, 614.284 244.338, 613.474 244.649 C 612.663 244.960, 612 244.721, 612 244.119 C 612 243.516, 610.200 242.736, 608 242.384 C 605.800 242.032, 604 241.372, 604 240.918 C 604 240.463, 602.313 239.780, 600.250 239.401 C 598.188 239.022, 596.242 238.316, 595.926 237.832 C 595.611 237.348, 593.719 236.891, 591.722 236.816 C 589.719 236.741, 587.860 236.079, 587.577 235.340 C 587.282 234.570, 585.560 234, 583.531 234 C 581.589 234, 580 233.590, 580 233.088 C 580 232.210, 572.400 230.390, 570.645 230.847 C 570.174 230.970, 569.206 230.586, 568.492 229.994 C 567.779 229.402, 565.239 228.796, 562.848 228.648 C 560.456 228.501, 557.559 227.867, 556.410 227.240 C 555.260 226.613, 549.451 225.605, 543.500 225 C 537.549 224.395, 531.882 223.472, 530.906 222.950 C 528.584 221.707, 501 221.699, 501 222.941 M 457 255.563 C 455.075 256.291, 449.675 256.909, 445 256.935 C 437.409 256.978, 428.417 258.440, 419.429 261.094 C 417.740 261.592, 414.238 262, 411.648 262 C 408.383 262, 406.761 262.460, 406.362 263.500 C 406.045 264.325, 404.597 265.016, 403.143 265.035 C 401.689 265.055, 399.375 265.714, 398 266.500 C 396.625 267.286, 394.481 267.945, 393.236 267.965 C 391.991 267.984, 390.191 268.443, 389.236 268.985 C 388.281 269.527, 384.658 270.891, 381.184 272.018 C 374.772 274.097, 373.947 274.440, 368.346 277.357 C 366.611 278.261, 364.511 279, 363.679 279 C 362.847 279, 362.017 279.337, 361.833 279.750 C 361.650 280.163, 358.019 282.220, 353.764 284.322 C 349.510 286.425, 345.771 288.562, 345.455 289.072 C 345.140 289.583, 344.009 290, 342.941 290 C 341.873 290, 341 290.398, 341 290.883 C 341 291.369, 340.212 292.051, 339.250 292.399 C 334.742 294.029, 305.951 314.738, 300.479 320.287 C 299.278 321.504, 294.067 326.635, 288.898 331.688 C 278.620 341.738, 271.432 349.702, 266.724 356.260 C 265.050 358.592, 263.371 360.725, 262.994 361 C 261.642 361.985, 253 374.907, 253 375.943 C 253 376.524, 252.582 377, 252.070 377 C 251.559 377, 250.096 379.137, 248.820 381.750 C 247.544 384.363, 245.953 387.080, 245.284 387.788 C 244.615 388.496, 243.002 391.196, 241.699 393.788 C 240.397 396.380, 238.856 399.400, 238.275 400.500 C 234.910 406.867, 231 416.230, 231 417.920 C 231 418.999, 230.543 420.164, 229.985 420.509 C 228.573 421.382, 226 427.789, 226 430.431 C 226 431.634, 225.339 433.491, 224.532 434.559 C 223.724 435.626, 223.049 437.700, 223.032 439.167 C 223.014 440.633, 222.493 442.002, 221.873 442.209 C 220.803 442.566, 220.066 445.570, 218.028 457.882 C 217.538 460.841, 216.656 463.744, 216.068 464.332 C 215.481 464.919, 215 467.503, 215 470.074 C 215 472.645, 214.325 476.662, 213.500 479 C 212.675 481.338, 212 486.570, 212 490.626 C 212 494.875, 211.576 498, 211 498 C 210.365 498, 210 505.667, 210 519 C 210 532.333, 210.365 540, 211 540 C 211.580 540, 212.005 543.257, 212.011 547.750 C 212.017 552.013, 212.692 557.709, 213.511 560.409 C 214.330 563.109, 215 567.052, 215 569.172 C 215 571.293, 215.432 573.809, 215.960 574.764 C 217.068 576.770, 218.952 584.693, 219.701 590.500 C 219.985 592.700, 220.788 595.175, 221.487 596 C 222.185 596.825, 222.985 598.850, 223.264 600.500 C 224.147 605.720, 229.009 618, 230.192 618 C 230.637 618, 231 619.116, 231 620.481 C 231 621.846, 232.322 625.783, 233.938 629.231 C 235.554 632.679, 237.147 636.175, 237.478 637 C 237.808 637.825, 238.639 639.400, 239.324 640.500 C 240.009 641.600, 241.579 644.300, 242.813 646.500 C 244.047 648.700, 245.942 651.850, 247.025 653.500 C 248.108 655.150, 249.489 657.737, 250.095 659.250 C 250.700 660.762, 251.602 662, 252.098 662 C 252.594 662, 253 662.474, 253 663.053 C 253 663.633, 255.582 667.570, 258.737 671.803 C 261.893 676.036, 265.698 681.300, 267.193 683.500 C 268.689 685.700, 274.207 691.985, 279.456 697.466 C 284.705 702.947, 289 707.785, 289 708.216 C 289 708.647, 289.344 709, 289.765 709 C 290.185 709, 293.898 712.204, 298.015 716.121 C 302.132 720.037, 307.300 724.421, 309.500 725.862 C 311.700 727.302, 313.725 728.768, 314 729.119 C 315.972 731.637, 337.173 746, 338.916 746 C 339.547 746, 340.322 746.675, 340.638 747.500 C 340.955 748.325, 341.953 749.003, 342.857 749.007 C 343.761 749.010, 345.850 749.927, 347.500 751.044 C 352.782 754.621, 373.243 764.110, 381.254 766.698 C 385.518 768.076, 389.257 769.607, 389.563 770.102 C 389.868 770.596, 391.554 771.016, 393.309 771.035 C 395.064 771.055, 397.625 771.714, 399 772.500 C 400.375 773.286, 402.512 773.945, 403.750 773.965 C 404.988 773.984, 406 774.450, 406 775 C 406 775.550, 407.688 775.998, 409.750 775.995 C 411.813 775.992, 415.525 776.630, 418 777.412 C 425.805 779.879, 434.145 781.284, 445.500 782.044 C 451.550 782.450, 458.525 783.324, 461 783.988 C 466.140 785.366, 482.683 784.717, 484.328 783.072 C 486.004 781.396, 484.515 780.787, 476.788 779.987 C 472.779 779.572, 468.233 778.731, 466.685 778.117 C 465.137 777.502, 460.974 777, 457.435 777 C 453.896 777, 451 776.613, 451 776.139 C 451 775.666, 448.784 775.016, 446.076 774.695 C 443.368 774.375, 440.331 773.700, 439.326 773.197 C 436.268 771.664, 427.352 769, 425.282 769 C 424.210 769, 423.013 768.679, 422.621 768.287 C 421.372 767.038, 412.586 764.002, 410.219 764.001 C 408.964 764, 407.678 763.325, 407.362 762.500 C 407.045 761.675, 406.252 761, 405.599 761 C 404.522 761, 389.614 754.133, 386 751.972 C 385.175 751.479, 382.475 750.055, 380 748.807 C 377.525 747.560, 374.108 745.518, 372.406 744.270 C 370.704 743.021, 368.853 742, 368.293 742 C 367.297 742, 362.634 738.705, 356.363 733.569 C 354.637 732.156, 352.902 731, 352.507 731 C 352.111 731, 350.083 729.650, 348 728 C 345.917 726.350, 343.999 725, 343.738 725 C 343.272 725, 341.208 723.100, 327.385 709.951 C 316.110 699.226, 299.661 680.844, 296.833 675.809 C 295.916 674.177, 294.492 672.089, 293.669 671.171 C 290.587 667.733, 284.997 659.326, 282.446 654.292 C 280.994 651.428, 279.175 648.560, 278.403 647.920 C 277.631 647.279, 277 646.105, 277 645.311 C 277 644.516, 275.927 642.434, 274.616 640.683 C 273.305 638.932, 271.890 636.379, 271.472 635.009 C 271.054 633.639, 269.398 629.589, 267.793 626.009 C 266.187 622.429, 264.404 618.375, 263.831 617 C 263.258 615.625, 262.226 613.150, 261.537 611.500 C 259.376 606.323, 256.990 598.573, 256.995 596.750 C 256.998 595.788, 256.550 595, 256 595 C 255.450 595, 254.984 593.538, 254.965 591.750 C 254.945 589.962, 254.286 587.375, 253.500 586 C 252.714 584.625, 252.055 581.643, 252.035 579.372 C 252.016 577.066, 251.373 574.725, 250.580 574.066 C 249.731 573.361, 248.951 570.197, 248.641 566.194 C 247.842 555.868, 246.141 540.602, 245.025 533.720 C 243.734 525.768, 243.719 512.905, 244.992 505.934 C 245.896 500.984, 247.252 488.474, 248.636 472.304 C 248.939 468.762, 249.773 465.603, 250.583 464.931 C 251.422 464.235, 252.013 461.866, 252.032 459.128 C 252.049 456.582, 252.724 453.626, 253.532 452.559 C 254.339 451.491, 255 449.155, 255 447.368 C 255 445.580, 255.411 443.864, 255.913 443.554 C 256.415 443.243, 257.129 441.194, 257.500 439 C 257.871 436.806, 258.585 434.757, 259.087 434.446 C 259.589 434.136, 260 432.965, 260 431.845 C 260 430.725, 260.620 428.614, 261.378 427.154 C 262.136 425.694, 263.237 423.375, 263.824 422 C 270.772 405.723, 276.765 393.271, 279.467 389.500 C 280.649 387.850, 282.446 384.711, 283.462 382.525 C 284.477 380.338, 285.953 377.904, 286.742 377.115 C 287.531 376.326, 289.329 373.840, 290.738 371.590 C 292.146 369.341, 293.580 367.275, 293.923 367 C 294.266 366.725, 295.262 365.375, 296.136 364 C 301.938 354.877, 325.890 329.120, 338.448 318.500 C 344.186 313.646, 359.668 302, 360.382 302 C 360.576 302, 363.832 299.920, 367.618 297.378 C 371.403 294.836, 376.863 291.673, 379.750 290.349 C 382.637 289.025, 385 287.505, 385 286.971 C 385 286.437, 385.909 286, 387.020 286 C 388.131 286, 390.822 284.875, 393 283.500 C 395.178 282.125, 397.219 281, 397.535 281 C 398.818 281, 406.922 276.935, 407.498 276.003 C 407.839 275.451, 409.219 275, 410.564 275 C 411.909 275, 415.342 273.875, 418.192 272.500 C 421.042 271.125, 424.017 270, 424.803 270 C 426.447 270, 434.959 267.365, 439.784 265.363 C 441.590 264.613, 444.853 264, 447.034 264 C 449.215 264, 451 263.550, 451 263 C 451 262.450, 452.913 261.973, 455.250 261.940 C 457.587 261.908, 461.750 261.435, 464.500 260.891 C 467.250 260.347, 472.860 259.466, 476.967 258.933 C 485.511 257.826, 487.641 256.574, 483.598 255.037 C 479.786 253.588, 461.251 253.954, 457 255.563 M 593.900 285.750 C 593.845 286.163, 593.415 290.775, 592.944 296 C 591.666 310.191, 590.552 317.251, 589.207 319.684 C 588.543 320.886, 588 322.997, 588 324.375 C 588 325.754, 587.550 327.160, 587 327.500 C 586.450 327.840, 586 328.811, 586 329.658 C 586 331.216, 584.072 336.150, 581.439 341.331 C 580.647 342.888, 580 344.746, 580 345.459 C 580 346.172, 579.366 347.281, 578.592 347.924 C 577.818 348.566, 576.448 350.534, 575.548 352.296 C 574.647 354.058, 573.036 356.850, 571.966 358.500 C 570.897 360.150, 569.710 362.175, 569.328 363 C 568.946 363.825, 566.916 366.791, 564.817 369.591 C 562.718 372.391, 561 375.203, 561 375.841 C 561 376.478, 560.536 377, 559.969 377 C 559.401 377, 558.635 377.788, 558.266 378.750 C 557.897 379.712, 556.223 382.461, 554.547 384.857 C 550.504 390.639, 548.191 394.174, 547.255 396 C 545.958 398.531, 538.715 409.469, 537.984 410 C 537.605 410.275, 536.472 412.300, 535.466 414.500 C 534.460 416.700, 532.368 420.140, 530.818 422.144 C 529.268 424.148, 528 426.131, 528 426.550 C 528 426.968, 526.875 428.786, 525.500 430.589 C 524.125 432.392, 523 434.523, 523 435.326 C 523 436.129, 522.325 437.045, 521.500 437.362 C 520.675 437.678, 520 438.658, 520 439.540 C 520 440.422, 519.325 441.818, 518.500 442.643 C 517.675 443.468, 517 445.011, 517 446.071 C 517 447.132, 516.580 448, 516.067 448 C 515.554 448, 514.819 449.012, 514.433 450.250 C 514.046 451.488, 513.454 452.725, 513.115 453 C 512.541 453.466, 509.964 458.591, 508.588 462 C 508.255 462.825, 507.032 465.075, 505.870 467 C 501.778 473.778, 498 481.297, 498 482.661 C 498 483.419, 496.875 485.822, 495.500 488 C 494.125 490.178, 493 492.814, 493 493.858 C 493 494.901, 492.325 496.315, 491.500 497 C 490.675 497.685, 490 499.035, 490 500 C 490 500.965, 489.325 502.315, 488.500 503 C 487.675 503.685, 487 505.063, 487 506.063 C 487 507.064, 486.550 508.160, 486 508.500 C 485.450 508.840, 484.997 509.879, 484.994 510.809 C 484.990 511.739, 484.315 513.789, 483.494 515.364 C 482.672 516.940, 482 518.991, 482 519.923 C 482 520.855, 481.339 522.491, 480.532 523.559 C 479.724 524.626, 479.035 526.625, 479 528 C 478.965 529.375, 478.276 531.374, 477.468 532.441 C 476.661 533.509, 476 535.620, 476 537.132 C 476 538.645, 475.602 540.128, 475.115 540.429 C 474.629 540.729, 473.928 542.995, 473.558 545.464 C 473.187 547.933, 472.460 550.215, 471.942 550.536 C 471.424 550.856, 470.986 552.779, 470.968 554.809 C 470.951 556.839, 470.276 559.374, 469.468 560.441 C 468.661 561.509, 468 564.456, 468 566.991 C 468 569.526, 467.441 572.159, 466.757 572.843 C 465.285 574.315, 464.305 582.577, 462.943 605 C 461.876 622.584, 462.622 655.648, 464.108 656.567 C 464.599 656.870, 465.003 659.454, 465.006 662.309 C 465.010 665.164, 465.685 668.789, 466.506 670.364 C 467.328 671.940, 468 674.891, 468 676.923 C 468 678.955, 468.661 681.491, 469.468 682.559 C 470.276 683.626, 470.965 685.625, 471 687 C 471.035 688.375, 471.724 690.374, 472.532 691.441 C 473.339 692.509, 474 694.620, 474 696.132 C 474 697.645, 474.450 699.160, 475 699.500 C 475.550 699.840, 476 700.936, 476 701.937 C 476 702.937, 476.675 704.315, 477.500 705 C 478.325 705.685, 479 707.023, 479 707.974 C 479 709.912, 485.020 721.633, 490.057 729.500 C 491.114 731.150, 492.240 733.175, 492.561 734 C 492.882 734.825, 493.563 736.175, 494.075 737 C 494.586 737.825, 495.402 739.400, 495.888 740.500 C 496.373 741.600, 497.722 743.357, 498.885 744.405 C 500.048 745.453, 501 746.867, 501 747.548 C 501 748.229, 501.675 749.045, 502.500 749.362 C 503.325 749.678, 504 750.851, 504 751.969 C 504 753.086, 504.413 754, 504.918 754 C 505.424 754, 506.810 755.575, 508 757.500 C 510.313 761.242, 512.407 761.987, 513.393 759.418 C 514.640 756.169, 514.029 743.421, 512.532 741.441 C 511.518 740.101, 511.050 736.869, 511.020 731 C 510.996 726.325, 510.312 720.025, 509.500 717 C 507.392 709.147, 507.415 654.367, 509.529 648.500 C 510.321 646.300, 510.993 641.800, 511.020 638.500 C 511.048 635.200, 511.714 631.375, 512.500 630 C 513.286 628.625, 513.945 625.614, 513.965 623.309 C 513.984 621.004, 514.450 618.840, 515 618.500 C 515.550 618.160, 516 616.839, 516 615.563 C 516 614.288, 516.675 612.685, 517.500 612 C 518.325 611.315, 519 610.191, 519 609.502 C 519 605.473, 532.105 582.648, 536.524 578.980 C 537.336 578.307, 538 577.135, 538 576.378 C 538 575.620, 538.490 575, 539.089 575 C 539.687 575, 542.488 572.978, 545.313 570.508 C 548.137 568.037, 551.810 565.366, 553.474 564.574 C 555.138 563.781, 557.400 562.315, 558.500 561.316 C 559.600 560.317, 563.200 558.631, 566.500 557.570 C 569.800 556.508, 573.210 555.045, 574.079 554.320 C 574.947 553.594, 577.647 552.986, 580.079 552.968 C 582.510 552.951, 585.374 552.276, 586.441 551.468 C 587.703 550.514, 590.745 550, 595.132 550 C 598.845 550, 602.160 549.550, 602.500 549 C 602.840 548.450, 606.031 548, 609.591 548 C 613.151 548, 617.680 547.325, 619.654 546.500 C 621.629 545.675, 624.228 545, 625.431 545 C 626.634 545, 628.491 544.339, 629.559 543.532 C 630.626 542.724, 632.296 542.049, 633.270 542.032 C 634.243 542.014, 636.822 540.875, 639 539.500 C 641.178 538.125, 643.406 537, 643.950 537 C 644.495 537, 645.938 535.650, 647.158 534 C 648.378 532.350, 649.880 531, 650.496 531 C 651.111 531, 652.465 529.087, 653.503 526.750 C 655.711 521.780, 656.200 508.900, 654.206 508.235 C 653.543 508.014, 653 506.699, 653 505.312 C 653 503.925, 651.634 500.766, 649.965 498.292 L 646.929 493.795 649.215 491.594 C 656.933 484.161, 658.429 481.711, 658.407 476.541 C 658.388 472.061, 657.971 471.090, 654.660 467.817 C 652.611 465.791, 650.161 463.985, 649.217 463.803 C 646.660 463.311, 647.141 460.551, 649.852 460.167 C 653.385 459.667, 657.885 455.132, 658.593 451.357 C 659.510 446.469, 658.562 444.080, 653.493 438.500 C 650.994 435.750, 648.085 432.339, 647.028 430.920 L 645.106 428.340 648.303 425.388 C 650.061 423.764, 653.975 420.664, 657 418.500 C 663.904 413.562, 663.966 413.467, 663.985 407.839 C 664.001 402.957, 664.244 403.292, 655.840 396.651 C 654.553 395.635, 651.700 393.614, 649.500 392.161 C 647.300 390.708, 645.275 389.222, 645 388.860 C 644.725 388.498, 641.575 386.060, 638 383.443 C 634.425 380.826, 631.350 378.306, 631.167 377.842 C 630.983 377.379, 630.355 377, 629.770 377 C 628.771 377, 624.790 373.618, 613.841 363.469 C 611.279 361.094, 608.886 358.216, 608.524 357.075 C 608.162 355.934, 607.446 355, 606.933 355 C 606.390 355, 606 347.489, 606 337.059 C 606 326.177, 605.607 318.875, 605 318.500 C 604.450 318.160, 604 315.070, 604 311.632 C 604 307.685, 603.459 304.667, 602.532 303.441 C 601.724 302.374, 601.033 299.925, 600.996 298 C 600.959 296.075, 600.286 293.375, 599.500 292 C 598.714 290.625, 598.055 288.488, 598.035 287.250 C 598.011 285.678, 597.397 285, 596 285 C 594.900 285, 593.955 285.337, 593.900 285.750 M 568.472 288.269 C 567.356 289.496, 564.218 295, 561.498 300.500 C 558.778 306, 556.203 310.650, 555.776 310.833 C 555.349 311.017, 555 311.649, 555 312.239 C 555 312.829, 553.875 314.786, 552.500 316.589 C 551.125 318.392, 550 320.291, 550 320.811 C 550 321.330, 549.325 322.315, 548.500 323 C 547.675 323.685, 547 325.090, 547 326.122 C 547 327.155, 546.652 328, 546.227 328 C 545.802 328, 544.565 329.666, 543.477 331.703 C 542.390 333.740, 540.487 336.505, 539.250 337.849 C 538.013 339.193, 537 340.707, 537 341.213 C 537 341.720, 534.971 344.692, 532.492 347.817 C 527.193 354.498, 527.765 353.756, 521.547 362 C 518.850 365.575, 514.327 371.200, 511.495 374.500 C 508.663 377.800, 505.256 381.777, 503.923 383.337 C 497.339 391.048, 471.064 416.417, 465.531 420.406 C 463.314 422.005, 461.140 423.917, 460.700 424.656 C 460.260 425.395, 459.510 426, 459.032 426 C 458.555 426, 455.989 428.178, 453.332 430.839 C 450.674 433.501, 443.959 439.521, 438.409 444.217 C 432.859 448.914, 426.930 454.049, 425.232 455.628 C 423.535 457.208, 419.643 460.750, 416.584 463.500 C 413.525 466.250, 411.017 469.069, 411.011 469.764 C 411.005 470.459, 410.438 471.935, 409.750 473.044 C 408.720 474.707, 408.764 475.229, 410 476.015 C 413.179 478.037, 413.619 477.802, 424.241 468.421 C 425.749 467.089, 427.388 466, 427.884 466 C 428.380 466, 429.045 465.325, 429.362 464.500 C 429.678 463.675, 430.431 463, 431.035 463 C 432.135 463, 438.078 458.816, 440.979 456 C 441.829 455.175, 444.768 452.700, 447.512 450.500 C 450.255 448.300, 452.860 445.938, 453.300 445.250 C 453.740 444.563, 454.644 444, 455.310 444 C 455.976 444, 457.734 442.875, 459.217 441.500 C 460.699 440.125, 462.350 439, 462.884 439 C 463.418 439, 464.742 437.872, 465.827 436.493 C 466.911 435.114, 470.656 431.887, 474.149 429.322 C 477.642 426.757, 480.950 424.147, 481.500 423.522 C 482.050 422.897, 484.286 421.076, 486.470 419.475 C 494.738 413.410, 524 382.743, 524 380.142 C 524 379.514, 524.385 379, 524.856 379 C 525.328 379, 527.690 376.231, 530.106 372.848 C 532.523 369.464, 535.288 365.989, 536.250 365.125 C 537.212 364.262, 538 362.840, 538 361.965 C 538 361.090, 539.350 359.081, 541 357.500 C 542.650 355.919, 544 354.190, 544 353.657 C 544 353.125, 545.024 351.296, 546.275 349.594 C 547.526 347.892, 549.842 344.025, 551.420 341 C 552.999 337.975, 554.901 334.790, 555.646 333.921 C 556.390 333.053, 557 331.772, 557 331.076 C 557 330.379, 557.645 328.614, 558.432 327.154 C 561.372 321.708, 566 310.945, 566 309.556 C 566 308.765, 566.450 307.840, 567 307.500 C 567.550 307.160, 568 305.870, 568 304.632 C 568 303.395, 568.661 301.509, 569.468 300.441 C 570.276 299.374, 570.951 296.813, 570.968 294.750 C 570.986 292.688, 571.481 291, 572.070 291 C 573.395 291, 572.877 286.774, 571.500 286.347 C 570.950 286.176, 569.587 287.041, 568.472 288.269 M 469 448.101 C 464.875 451.428, 460.210 455.128, 458.633 456.325 C 457.056 457.521, 454.297 459.738, 452.501 461.250 C 450.705 462.762, 448.960 464, 448.623 464 C 448.286 464, 445.195 466.291, 441.755 469.092 C 438.315 471.892, 434.825 474.456, 434 474.790 C 433.175 475.124, 431.380 476.433, 430.010 477.699 C 428.641 478.964, 427.131 480, 426.654 480 C 426.178 480, 424.083 481.350, 422 483 C 419.917 484.650, 417.909 486, 417.539 486 C 417.169 486, 415.392 487.125, 413.589 488.500 C 411.786 489.875, 410.012 491, 409.647 491 C 409.282 491, 407.119 492.350, 404.841 494 C 402.564 495.650, 400.092 497, 399.350 497 C 398.607 497, 398 497.398, 398 497.883 C 398 498.369, 397.212 499.031, 396.250 499.354 C 395.288 499.678, 393.825 500.355, 393 500.861 C 392.175 501.366, 389.700 502.617, 387.500 503.640 C 385.300 504.663, 383.350 505.837, 383.167 506.250 C 382.983 506.663, 382.083 507.003, 381.167 507.006 C 380.250 507.010, 378.211 507.685, 376.636 508.506 C 375.060 509.328, 373.217 510, 372.539 510 C 371.861 510, 370.268 510.900, 369 512 C 367.732 513.100, 365.825 514, 364.764 514 C 362.096 514, 363.103 516.419, 365.944 516.835 C 367.202 517.019, 368.719 516.681, 369.315 516.085 C 369.912 515.488, 372.074 515, 374.119 515 C 376.164 515, 379.337 514.249, 381.169 513.331 C 387.265 510.276, 387.962 510, 389.582 510 C 390.467 510, 392.386 509.403, 393.846 508.674 C 395.306 507.944, 397.999 506.594, 399.831 505.674 C 401.663 504.753, 403.977 504, 404.974 504 C 405.971 504, 407.045 503.325, 407.362 502.500 C 407.678 501.675, 408.920 501, 410.122 501 C 412.336 501, 423.081 496.349, 424 494.994 C 424.275 494.588, 426.610 493.300, 429.189 492.131 C 431.769 490.962, 434.158 489.554, 434.498 489.003 C 434.839 488.451, 436.006 488, 437.090 488 C 438.175 488, 439.322 487.325, 439.638 486.500 C 439.955 485.675, 440.786 485, 441.485 485 C 442.183 485, 443.315 484.325, 444 483.500 C 444.685 482.675, 446.090 482, 447.122 482 C 448.155 482, 449 481.652, 449 481.227 C 449 480.802, 450.688 479.569, 452.750 478.487 C 464.568 472.287, 480.880 457.667, 481.145 453.038 C 481.579 445.464, 480.434 442.009, 477.500 442.042 C 476.950 442.048, 473.125 444.775, 469 448.101 M 467.179 477.500 C 466.097 478.875, 464.915 480, 464.552 480 C 464.188 480, 460.748 482.705, 456.906 486.012 C 453.064 489.319, 448.026 493.252, 445.710 494.753 C 443.395 496.253, 441.275 497.734, 441 498.044 C 440.725 498.353, 438.700 499.915, 436.500 501.515 C 434.300 503.115, 431.734 505.116, 430.798 505.962 C 427.350 509.078, 426.063 510, 425.165 510 C 424.659 510, 423.685 510.675, 423 511.500 C 422.315 512.325, 421.116 513, 420.335 513 C 419.554 513, 418.372 513.451, 417.708 514.001 C 414.122 516.974, 403.872 524, 403.120 524 C 402.639 524, 401.719 524.634, 401.076 525.408 C 400.434 526.182, 398.466 527.545, 396.704 528.436 C 393.496 530.057, 391.526 531.122, 388.250 533.006 C 387.288 533.560, 385.825 534.290, 385 534.628 C 377.758 537.601, 376 538.493, 376 539.192 C 376 539.637, 374.672 540, 373.050 540 C 371.427 540, 369.740 540.636, 369.300 541.413 C 368.860 542.191, 367.150 542.978, 365.500 543.163 C 361.481 543.614, 361.614 546.171, 365.719 547.348 C 368.188 548.056, 369.518 547.890, 371.433 546.636 C 372.806 545.736, 375.015 545, 376.342 545 C 377.669 545, 379.315 544.325, 380 543.500 C 380.685 542.675, 382.321 542, 383.636 542 C 384.951 542, 386.809 541.579, 387.764 541.064 C 391.428 539.090, 396.351 537, 397.338 537 C 398.833 537, 406.889 532.989, 407.553 531.913 C 407.864 531.411, 408.955 531, 409.978 531 C 411.987 531, 418.289 527.976, 418.833 526.750 C 419.017 526.337, 420.077 526, 421.189 526 C 422.302 526, 424.917 524.650, 427 523 C 429.083 521.350, 431.249 520, 431.813 520 C 433.299 520, 438.986 516.634, 438.994 515.750 C 438.997 515.337, 439.383 515, 439.852 515 C 440.699 515, 453.405 507.017, 455.708 505.038 C 456.372 504.467, 457.523 504, 458.265 504 C 460.245 504, 474.382 489.945, 476.330 486.039 C 477.249 484.199, 477.986 481.749, 477.968 480.596 C 477.882 474.911, 470.811 472.882, 467.179 477.500 M 463.105 508.909 C 461.894 509.959, 459.029 512.322, 456.738 514.159 C 454.446 515.997, 450.926 518.962, 448.915 520.750 C 446.903 522.538, 444.787 524, 444.212 524 C 443.637 524, 443.017 524.341, 442.833 524.757 C 442.395 525.753, 434.400 532, 433.564 532 C 432.885 532, 431.071 533.392, 428.202 536.115 C 427.266 537.004, 424.693 538.855, 422.485 540.229 C 420.277 541.604, 417.860 543.464, 417.113 544.364 C 416.366 545.264, 415.201 546, 414.524 546 C 413.846 546, 412.078 547.125, 410.595 548.500 C 409.111 549.875, 407.711 551, 407.484 551 C 407.256 551, 402.989 553.475, 398 556.500 C 393.011 559.525, 388.712 562, 388.445 562 C 388.178 562, 386.282 563.053, 384.230 564.340 C 382.179 565.627, 379.262 566.986, 377.750 567.359 C 376.238 567.733, 375 568.480, 375 569.019 C 375 569.559, 374.155 570, 373.122 570 C 372.090 570, 370.685 570.675, 370 571.500 C 369.315 572.325, 367.446 573, 365.846 573 C 364.183 573, 362.691 573.642, 362.362 574.500 C 362.045 575.325, 360.736 576, 359.452 576 C 356.632 576, 355.212 577.887, 357.122 579.096 C 359.004 580.289, 363.742 580.227, 364.500 579 C 364.840 578.450, 366.409 578, 367.988 578 C 369.566 578, 371.532 577.325, 372.357 576.500 C 373.182 575.675, 375.184 575, 376.806 575 C 378.428 575, 380.315 574.325, 381 573.500 C 381.685 572.675, 383.288 572, 384.563 572 C 385.839 572, 387.139 571.585, 387.452 571.077 C 387.766 570.569, 389.372 569.858, 391.022 569.495 C 394.589 568.712, 399.727 566.251, 400.539 564.937 C 400.858 564.422, 402.190 564, 403.500 564 C 404.810 564, 406.153 563.562, 406.483 563.027 C 406.814 562.491, 408.753 561.339, 410.792 560.466 C 417.608 557.546, 427.869 552.022, 428.564 550.896 C 428.869 550.403, 429.991 550, 431.059 550 C 432.127 550, 433 549.550, 433 549 C 433 548.450, 433.607 548, 434.350 548 C 435.092 548, 437.564 546.650, 439.841 545 C 442.119 543.350, 444.282 542, 444.647 542 C 445.012 542, 446.786 540.875, 448.589 539.500 C 450.392 538.125, 452.300 537, 452.829 537 C 453.358 537, 458.113 532.782, 463.396 527.627 L 473 518.254 473 513.234 C 473 509.579, 472.570 508.049, 471.418 507.607 C 468.500 506.487, 465.323 506.985, 463.105 508.909 M 374.710 586.697 C 373.049 587.129, 372.951 588.570, 373.345 606.831 C 373.803 628.020, 374.859 638.259, 376.785 640.185 C 377.453 640.853, 378 643.474, 378 646.009 C 378 648.544, 378.661 651.491, 379.468 652.559 C 380.276 653.626, 380.951 655.977, 380.968 657.781 C 380.987 659.753, 381.599 661.293, 382.500 661.638 C 383.345 661.963, 384 663.451, 384 665.048 C 384 666.607, 384.450 668.160, 385 668.500 C 385.550 668.840, 386 669.908, 386 670.874 C 386 671.839, 388.637 677.775, 391.861 684.065 C 399.650 699.264, 401.287 701.986, 402.643 701.994 C 405.235 702.008, 405.921 694.009, 403.500 692 C 402.459 691.136, 402 688.840, 402 684.500 C 402 681.059, 401.299 676.566, 400.442 674.514 C 398.821 670.636, 399.272 660.568, 401.117 659.428 C 401.603 659.128, 402 657.397, 402 655.582 C 402 649.565, 411.145 635, 414.923 635 C 415.515 635, 416 634.595, 416 634.101 C 416 632.447, 423.844 629.090, 428.197 628.881 C 435.478 628.531, 439.397 625.705, 437.235 622.365 C 433.031 615.871, 418.212 600.967, 413.361 598.355 C 411.512 597.360, 410 596.198, 410 595.773 C 410 595.348, 408.902 595, 407.559 595 C 406.216 595, 404.869 594.597, 404.564 594.104 C 403.721 592.740, 396.167 589.002, 394.219 588.985 C 393.274 588.977, 390.700 588.321, 388.500 587.529 C 384.615 586.129, 378.351 585.751, 374.710 586.697" stroke="none" fill="#fc1429" fill-rule="evenodd"/><path d="" stroke="none" fill="#fc1c2c" fill-rule="evenodd"/></svg>