<svg xmlns="http://www.w3.org/2000/svg" width="512" height="512" viewBox="0 0 512 512" version="1.1"><path d="" stroke="none" fill="#985cfc" fill-rule="evenodd"/><path d="M 181.149 116.966 C 121.581 148.169, 81.167 197.844, 68.850 255 C 65.816 269.082, 65.503 302.561, 68.278 316.210 C 75.054 349.534, 94.562 378.593, 118.593 391.157 C 132.366 398.359, 139.231 400.161, 155 400.714 C 170.665 401.263, 179.542 399.807, 189.799 395.007 C 204.945 387.919, 215.279 377.774, 223.459 361.961 C 233.891 341.794, 235.607 321.049, 228.527 300.689 C 224.877 290.195, 220.346 283.350, 210.500 273.456 C 202.888 265.807, 200.035 263.694, 192 259.757 C 177.624 252.714, 172.211 251.543, 154 251.537 C 138.433 251.532, 136.068 251.942, 125.858 256.412 C 124.345 257.075, 124.329 256.514, 125.658 249.316 C 133.469 207.006, 158.818 172.699, 202.109 145.849 C 207.274 142.645, 212.034 139.681, 212.686 139.262 C 214.006 138.414, 195.916 111.683, 193.736 111.260 C 193.056 111.128, 187.392 113.696, 181.149 116.966 M 396.126 116.014 C 337.197 147.295, 297.516 193.813, 283.964 247.500 C 277.008 275.058, 277.805 308.735, 285.988 332.976 C 290.722 347.001, 300.382 363.303, 311.049 375.268 C 321.039 386.472, 336.267 395.191, 352.699 399.114 C 360.139 400.891, 363.665 401.146, 375.500 400.763 C 391.279 400.253, 400.607 397.814, 411.061 391.463 C 422.330 384.618, 433.766 370.321, 440.052 355.219 C 455.247 318.720, 440.703 278.132, 405.943 260.034 C 392.900 253.243, 384.928 251.502, 367 251.528 C 352.735 251.549, 350.962 251.758, 344.750 254.151 C 338.016 256.746, 338 256.747, 338.001 254.626 C 338.003 251.161, 342.681 232.893, 345.450 225.537 C 349.385 215.082, 357.559 200.102, 364.091 191.374 C 376.828 174.352, 396.833 156.756, 417.400 144.482 C 423.333 140.942, 426.719 138.337, 426.301 137.634 C 422.433 131.123, 407.613 111.004, 406.695 111.019 C 406.038 111.030, 401.282 113.278, 396.126 116.014" stroke="none" fill="#945cfc" fill-rule="evenodd"/></svg>